<svg version="1.1" viewBox="0.0 0.0 960.0 540.0" fill="none" stroke="none" stroke-linecap="square" stroke-miterlimit="10" xmlns:xlink="http://www.w3.org/1999/xlink" xmlns="http://www.w3.org/2000/svg"><clipPath id="p.0"><path d="m0 0l960.0 0l0 540.0l-960.0 0l0 -540.0z" clip-rule="nonzero"/></clipPath><g clip-path="url(#p.0)"><path fill="#ffffff" d="m0 0l960.0 0l0 540.0l-960.0 0z" fill-rule="evenodd"/><path fill="#eeeeee" d="m217.8362 173.07898l0 0c0 -20.53659 16.648209 -37.1848 37.184814 -37.1848l334.90643 0c9.8619995 0 19.320068 3.9176788 26.29358 10.891174c6.9735107 6.9735107 10.891174 16.43161 10.891174 26.293625l0 148.73474c0 20.536621 -16.648193 37.184814 -37.184753 37.184814l-334.90643 0c-20.536606 0 -37.184814 -16.648193 -37.184814 -37.184814z" fill-rule="evenodd"/><path stroke="#595959" stroke-width="1.0" stroke-linejoin="round" stroke-linecap="butt" d="m217.8362 173.07898l0 0c0 -20.53659 16.648209 -37.1848 37.184814 -37.1848l334.90643 0c9.8619995 0 19.320068 3.9176788 26.29358 10.891174c6.9735107 6.9735107 10.891174 16.43161 10.891174 26.293625l0 148.73474c0 20.536621 -16.648193 37.184814 -37.184753 37.184814l-334.90643 0c-20.536606 0 -37.184814 -16.648193 -37.184814 -37.184814z" fill-rule="evenodd"/><path fill="#ffffff" d="m-0.0025304463 247.44635l0 0c0 -40.11815 31.06732 -72.640335 69.3908 -72.640335l0 0c18.403587 0 36.053406 7.6531525 49.066704 21.275864c13.013306 13.622711 20.324097 32.09906 20.324097 51.36447l0 0c0 40.118164 -31.067314 72.64035 -69.3908 72.64035l0 0c-38.32348 0 -69.3908 -32.522186 -69.3908 -72.64035z" fill-rule="evenodd"/><path stroke="#595959" stroke-width="1.0" stroke-linejoin="round" stroke-linecap="butt" d="m-0.0025304463 247.44635l0 0c0 -40.11815 31.06732 -72.640335 69.3908 -72.640335l0 0c18.403587 0 36.053406 7.6531525 49.066704 21.275864c13.013306 13.622711 20.324097 32.09906 20.324097 51.36447l0 0c0 40.118164 -31.067314 72.64035 -69.3908 72.64035l0 0c-38.32348 0 -69.3908 -32.522186 -69.3908 -72.64035z" fill-rule="evenodd"/><path fill="#000000" d="m52.817955 249.95511l2.28125 0.578125q-0.71875 2.796875 -2.578125 4.28125q-1.859375 1.46875 -4.546875 1.46875q-2.765625 0 -4.515625 -1.125q-1.734375 -1.140625 -2.640625 -3.28125q-0.90625 -2.15625 -0.90625 -4.609375q0 -2.6875 1.015625 -4.6875q1.03125 -2.0 2.921875 -3.03125q1.890625 -1.03125 4.171875 -1.03125q2.578125 0 4.328125 1.3125q1.765625 1.3125 2.453125 3.6875l-2.234375 0.53125q-0.609375 -1.875 -1.75 -2.734375q-1.125 -0.859375 -2.84375 -0.859375q-1.984375 0 -3.3125 0.953125q-1.328125 0.953125 -1.875 2.546875q-0.53125 1.59375 -0.53125 3.296875q0 2.1875 0.625 3.828125q0.640625 1.640625 1.984375 2.453125q1.359375 0.796875 2.921875 0.796875q1.921875 0 3.234375 -1.09375q1.328125 -1.109375 1.796875 -3.28125zm4.7539062 6.03125l0 -17.1875l2.109375 0l0 17.1875l-2.109375 0zm5.3945312 -14.75l0 -2.4375l2.109375 0l0 2.4375l-2.109375 0zm0 14.75l0 -12.453125l2.109375 0l0 12.453125l-2.109375 0zm13.847656 -4.015625l2.171875 0.28125q-0.515625 1.90625 -1.90625 2.96875q-1.390625 1.046875 -3.5625 1.046875q-2.734375 0 -4.34375 -1.671875q-1.59375 -1.6875 -1.59375 -4.734375q0 -3.140625 1.609375 -4.875q1.625 -1.734375 4.203125 -1.734375q2.5 0 4.078125 1.703125q1.59375 1.703125 1.59375 4.78125q0 0.1875 -0.015625 0.5625l-9.28125 0q0.109375 2.046875 1.15625 3.140625q1.046875 1.09375 2.609375 1.09375q1.15625 0 1.96875 -0.609375q0.828125 -0.609375 1.3125 -1.953125zm-6.9375 -3.40625l6.953125 0q-0.140625 -1.5625 -0.796875 -2.359375q-1.0 -1.21875 -2.609375 -1.21875q-1.453125 0 -2.453125 0.984375q-0.984375 0.96875 -1.09375 2.59375zm11.753906 7.421875l0 -12.453125l1.90625 0l0 1.78125q1.375 -2.0625 3.953125 -2.0625q1.125 0 2.0625 0.40625q0.953125 0.40625 1.421875 1.0625q0.46875 0.65625 0.65625 1.5625q0.125 0.578125 0.125 2.046875l0 7.65625l-2.109375 0l0 -7.578125q0 -1.28125 -0.25 -1.921875q-0.25 -0.640625 -0.875 -1.015625q-0.625 -0.390625 -1.46875 -0.390625q-1.34375 0 -2.328125 0.859375q-0.984375 0.859375 -0.984375 3.25l0 6.796875l-2.109375 0zm17.957031 -1.890625l0.3125 1.859375q-0.890625 0.203125 -1.59375 0.203125q-1.15625 0 -1.796875 -0.359375q-0.625 -0.375 -0.890625 -0.96875q-0.25 -0.59375 -0.25 -2.484375l0 -7.171875l-1.546875 0l0 -1.640625l1.546875 0l0 -3.078125l2.09375 -1.265625l0 4.34375l2.125 0l0 1.640625l-2.125 0l0 7.28125q0 0.90625 0.109375 1.171875q0.125 0.25 0.375 0.40625q0.25 0.140625 0.71875 0.140625q0.34375 0 0.921875 -0.078125z" fill-rule="nonzero"/><path fill="#000000" fill-opacity="0.0" d="m235.40167 94.15931l166.8688 0l0 42.021812l-166.8688 0z" fill-rule="evenodd"/><path fill="#000000" d="m245.87042 121.07931l0 -13.359375l9.65625 0l0 1.578125l-7.875 0l0 4.09375l7.375 0l0 1.5625l-7.375 0l0 4.546875l8.1875 0l0 1.578125l-9.96875 0zm21.943573 -4.6875l1.765625 0.453125q-0.5625 2.171875 -2.0 3.328125q-1.4375 1.140625 -3.53125 1.140625q-2.15625 0 -3.515625 -0.875q-1.34375 -0.890625 -2.0625 -2.546875q-0.703125 -1.671875 -0.703125 -3.59375q0 -2.078125 0.796875 -3.625q0.796875 -1.5625 2.265625 -2.359375q1.484375 -0.8125 3.25 -0.8125q2.0 0 3.359375 1.015625q1.375 1.015625 1.90625 2.875l-1.734375 0.40625q-0.46875 -1.453125 -1.359375 -2.109375q-0.875 -0.671875 -2.203125 -0.671875q-1.546875 0 -2.578125 0.734375q-1.03125 0.734375 -1.453125 1.984375q-0.421875 1.234375 -0.421875 2.5625q0 1.703125 0.5 2.96875q0.5 1.265625 1.546875 1.90625q1.046875 0.625 2.265625 0.625q1.484375 0 2.515625 -0.859375q1.03125 -0.859375 1.390625 -2.546875zm11.894806 3.109375l0 1.578125l-8.828125 0q-0.015625 -0.59375 0.1875 -1.140625q0.34375 -0.90625 1.078125 -1.78125q0.75 -0.875 2.15625 -2.015625q2.171875 -1.78125 2.9375 -2.828125q0.765625 -1.046875 0.765625 -1.96875q0 -0.984375 -0.703125 -1.640625q-0.6875 -0.671875 -1.8125 -0.671875q-1.1875 0 -1.90625 0.71875q-0.703125 0.703125 -0.703125 1.953125l-1.6875 -0.171875q0.171875 -1.890625 1.296875 -2.875q1.140625 -0.984375 3.03125 -0.984375q1.921875 0 3.046875 1.0625q1.125 1.0625 1.125 2.640625q0 0.796875 -0.328125 1.578125q-0.328125 0.78125 -1.09375 1.640625q-0.75 0.84375 -2.53125 2.34375q-1.46875 1.234375 -1.890625 1.6875q-0.421875 0.4375 -0.6875 0.875l6.546875 0zm7.402771 -9.890625l0 -1.890625l1.640625 0l0 1.890625l-1.640625 0zm0 11.46875l0 -9.671875l1.640625 0l0 9.671875l-1.640625 0zm4.1448364 0l0 -9.671875l1.46875 0l0 1.375q1.0625 -1.59375 3.078125 -1.59375q0.875 0 1.609375 0.3125q0.734375 0.3125 1.09375 0.828125q0.375 0.5 0.515625 1.203125q0.09375 0.453125 0.09375 1.59375l0 5.953125l-1.640625 0l0 -5.890625q0 -1.0 -0.203125 -1.484375q-0.1875 -0.5 -0.671875 -0.796875q-0.484375 -0.296875 -1.140625 -0.296875q-1.046875 0 -1.8125 0.671875q-0.75 0.65625 -0.75 2.515625l0 5.28125l-1.640625 0zm9.719452 -2.890625l1.625 -0.25q0.125 0.96875 0.75 1.5q0.625 0.515625 1.75 0.515625q1.125 0 1.671875 -0.453125q0.546875 -0.46875 0.546875 -1.09375q0 -0.546875 -0.484375 -0.875q-0.328125 -0.21875 -1.671875 -0.546875q-1.8125 -0.46875 -2.515625 -0.796875q-0.6875 -0.328125 -1.046875 -0.90625q-0.359375 -0.59375 -0.359375 -1.3125q0 -0.640625 0.296875 -1.1875q0.296875 -0.5625 0.8125 -0.921875q0.375 -0.28125 1.03125 -0.46875q0.671875 -0.203125 1.421875 -0.203125q1.140625 0 2.0 0.328125q0.859375 0.328125 1.265625 0.890625q0.421875 0.5625 0.578125 1.5l-1.609375 0.21875q-0.109375 -0.75 -0.640625 -1.171875q-0.515625 -0.421875 -1.46875 -0.421875q-1.140625 0 -1.625 0.375q-0.46875 0.375 -0.46875 0.875q0 0.3125 0.1875 0.578125q0.203125 0.265625 0.640625 0.4375q0.234375 0.09375 1.4375 0.421875q1.75 0.453125 2.4375 0.75q0.6875 0.296875 1.078125 0.859375q0.390625 0.5625 0.390625 1.40625q0 0.828125 -0.484375 1.546875q-0.46875 0.71875 -1.375 1.125q-0.90625 0.390625 -2.046875 0.390625q-1.875 0 -2.875 -0.78125q-0.984375 -0.78125 -1.25 -2.328125zm13.5625 1.421875l0.234375 1.453125q-0.6875 0.140625 -1.234375 0.140625q-0.890625 0 -1.390625 -0.28125q-0.484375 -0.28125 -0.6875 -0.734375q-0.203125 -0.46875 -0.203125 -1.9375l0 -5.578125l-1.203125 0l0 -1.265625l1.203125 0l0 -2.390625l1.625 -0.984375l0 3.375l1.65625 0l0 1.265625l-1.65625 0l0 5.671875q0 0.6875 0.078125 0.890625q0.09375 0.203125 0.28125 0.328125q0.203125 0.109375 0.578125 0.109375q0.265625 0 0.71875 -0.0625zm7.917694 0.28125q-0.921875 0.765625 -1.765625 1.09375q-0.828125 0.3125 -1.796875 0.3125q-1.59375 0 -2.453125 -0.78125q-0.859375 -0.78125 -0.859375 -1.984375q0 -0.71875 0.328125 -1.296875q0.328125 -0.59375 0.84375 -0.9375q0.53125 -0.359375 1.1875 -0.546875q0.46875 -0.125 1.453125 -0.25q1.984375 -0.234375 2.921875 -0.5625q0.015625 -0.34375 0.015625 -0.421875q0 -1.0 -0.46875 -1.421875q-0.625 -0.546875 -1.875 -0.546875q-1.15625 0 -1.703125 0.40625q-0.546875 0.40625 -0.8125 1.421875l-1.609375 -0.21875q0.21875 -1.015625 0.71875 -1.640625q0.5 -0.640625 1.453125 -0.984375q0.953125 -0.34375 2.1875 -0.34375q1.25 0 2.015625 0.296875q0.78125 0.28125 1.140625 0.734375q0.375 0.4375 0.515625 1.109375q0.078125 0.421875 0.078125 1.515625l0 2.1875q0 2.28125 0.109375 2.890625q0.109375 0.59375 0.40625 1.15625l-1.703125 0q-0.265625 -0.515625 -0.328125 -1.1875zm-0.140625 -3.671875q-0.890625 0.375 -2.671875 0.625q-1.015625 0.140625 -1.4375 0.328125q-0.421875 0.1875 -0.65625 0.53125q-0.21875 0.34375 -0.21875 0.78125q0 0.65625 0.5 1.09375q0.5 0.4375 1.453125 0.4375q0.9375 0 1.671875 -0.40625q0.75 -0.421875 1.09375 -1.140625q0.265625 -0.5625 0.265625 -1.640625l0 -0.609375zm4.203827 4.859375l0 -9.671875l1.46875 0l0 1.375q1.0625 -1.59375 3.078125 -1.59375q0.875 0 1.609375 0.3125q0.734375 0.3125 1.09375 0.828125q0.375 0.5 0.515625 1.203125q0.09375 0.453125 0.09375 1.59375l0 5.953125l-1.640625 0l0 -5.890625q0 -1.0 -0.203125 -1.484375q-0.1875 -0.5 -0.671875 -0.796875q-0.484375 -0.296875 -1.140625 -0.296875q-1.046875 0 -1.8125 0.671875q-0.75 0.65625 -0.75 2.515625l0 5.28125l-1.640625 0zm16.688232 -3.546875l1.609375 0.21875q-0.265625 1.65625 -1.359375 2.609375q-1.078125 0.9375 -2.671875 0.9375q-1.984375 0 -3.1875 -1.296875q-1.203125 -1.296875 -1.203125 -3.71875q0 -1.578125 0.515625 -2.75q0.515625 -1.171875 1.578125 -1.75q1.0625 -0.59375 2.3125 -0.59375q1.578125 0 2.578125 0.796875q1.0 0.796875 1.28125 2.265625l-1.59375 0.234375q-0.234375 -0.96875 -0.8125 -1.453125q-0.578125 -0.5 -1.390625 -0.5q-1.234375 0 -2.015625 0.890625q-0.78125 0.890625 -0.78125 2.8125q0 1.953125 0.75 2.84375q0.75 0.875 1.953125 0.875q0.96875 0 1.609375 -0.59375q0.65625 -0.59375 0.828125 -1.828125zm9.640625 0.4375l1.6875 0.203125q-0.40625 1.484375 -1.484375 2.3125q-1.078125 0.8125 -2.765625 0.8125q-2.125 0 -3.375 -1.296875q-1.234375 -1.3125 -1.234375 -3.671875q0 -2.453125 1.25 -3.796875q1.265625 -1.34375 3.265625 -1.34375q1.9375 0 3.15625 1.328125q1.234375 1.3125 1.234375 3.703125q0 0.15625 0 0.4375l-7.21875 0q0.09375 1.59375 0.90625 2.453125q0.8125 0.84375 2.015625 0.84375q0.90625 0 1.546875 -0.46875q0.640625 -0.484375 1.015625 -1.515625zm-5.390625 -2.65625l5.40625 0q-0.109375 -1.21875 -0.625 -1.828125q-0.78125 -0.953125 -2.03125 -0.953125q-1.125 0 -1.90625 0.765625q-0.765625 0.75 -0.84375 2.015625z" fill-rule="nonzero"/><path fill="#ffffff" d="m272.05698 217.75374l0 0c0 -8.915329 7.227295 -16.142624 16.142609 -16.142624l78.37155 0c4.281311 0 8.387238 1.7007294 11.414581 4.728058c3.0273132 3.0273285 4.728058 7.1332703 4.728058 11.414566l0 64.56856c0 8.915314 -7.227295 16.142609 -16.14264 16.142609l-78.37155 0c-8.915314 0 -16.142609 -7.227295 -16.142609 -16.142609z" fill-rule="evenodd"/><path stroke="#595959" stroke-width="1.0" stroke-linejoin="round" stroke-linecap="butt" d="m272.05698 217.75374l0 0c0 -8.915329 7.227295 -16.142624 16.142609 -16.142624l78.37155 0c4.281311 0 8.387238 1.7007294 11.414581 4.728058c3.0273132 3.0273285 4.728058 7.1332703 4.728058 11.414566l0 64.56856c0 8.915314 -7.227295 16.142609 -16.14264 16.142609l-78.37155 0c-8.915314 0 -16.142609 -7.227295 -16.142609 -16.142609z" fill-rule="evenodd"/><path fill="#000000" d="m299.26514 256.958l0 -13.359375l1.8125 0l7.015625 10.484375l0 -10.484375l1.6875 0l0 13.359375l-1.8125 0l-7.015625 -10.5l0 10.5l-1.6875 0zm19.738586 -5.234375l0 -1.578125l5.65625 0l0 4.953125q-1.296875 1.046875 -2.6875 1.578125q-1.375 0.515625 -2.84375 0.515625q-1.96875 0 -3.578125 -0.84375q-1.609375 -0.84375 -2.421875 -2.4375q-0.8125 -1.59375 -0.8125 -3.5625q0 -1.953125 0.8125 -3.640625q0.8125 -1.6875 2.34375 -2.5q1.53125 -0.828125 3.515625 -0.828125q1.453125 0 2.625 0.46875q1.171875 0.46875 1.828125 1.3125q0.671875 0.828125 1.015625 2.171875l-1.59375 0.4375q-0.296875 -1.015625 -0.75 -1.59375q-0.4375 -0.59375 -1.265625 -0.9375q-0.828125 -0.34375 -1.84375 -0.34375q-1.203125 0 -2.09375 0.375q-0.890625 0.359375 -1.4375 0.96875q-0.53125 0.59375 -0.828125 1.3125q-0.515625 1.234375 -0.515625 2.6875q0 1.78125 0.609375 2.984375q0.625 1.203125 1.796875 1.796875q1.171875 0.578125 2.5 0.578125q1.140625 0 2.234375 -0.4375q1.09375 -0.453125 1.65625 -0.953125l0 -2.484375l-3.921875 0zm8.558289 5.234375l0 -13.359375l1.765625 0l0 13.359375l-1.765625 0zm4.870819 0l0 -13.359375l1.8125 0l7.015625 10.484375l0 -10.484375l1.6875 0l0 13.359375l-1.8125 0l-7.015625 -10.5l0 10.5l-1.6875 0zm12.129181 0l5.171875 -6.953125l-4.5625 -6.40625l2.109375 0l2.421875 3.4375q0.75 1.0625 1.078125 1.625q0.4375 -0.71875 1.046875 -1.515625l2.6875 -3.546875l1.921875 0l-4.6875 6.296875l5.0625 7.0625l-2.1875 0l-3.359375 -4.765625q-0.28125 -0.40625 -0.59375 -0.890625q-0.4375 0.734375 -0.625 1.0l-3.359375 4.65625l-2.125 0z" fill-rule="nonzero"/><path fill="#ffffff" d="m436.91888 217.75374l0 0c0 -8.915329 7.227295 -16.142624 16.142609 -16.142624l78.37155 0c4.281311 0 8.387207 1.7007294 11.414551 4.728058c3.0273438 3.0273285 4.7280884 7.1332703 4.7280884 11.414566l0 64.56856c0 8.915314 -7.227295 16.142609 -16.14264 16.142609l-78.37155 0c-8.915314 0 -16.142609 -7.227295 -16.142609 -16.142609z" fill-rule="evenodd"/><path stroke="#595959" stroke-width="1.0" stroke-linejoin="round" stroke-linecap="butt" d="m436.91888 217.75374l0 0c0 -8.915329 7.227295 -16.142624 16.142609 -16.142624l78.37155 0c4.281311 0 8.387207 1.7007294 11.414551 4.728058c3.0273438 3.0273285 4.7280884 7.1332703 4.7280884 11.414566l0 64.56856c0 8.915314 -7.227295 16.142609 -16.14264 16.142609l-78.37155 0c-8.915314 0 -16.142609 -7.227295 -16.142609 -16.142609z" fill-rule="evenodd"/><path fill="#000000" d="m464.6437 245.95801l0 -13.359375l5.046875 0q1.328125 0 2.03125 0.125q0.96875 0.171875 1.640625 0.640625q0.671875 0.453125 1.078125 1.28125q0.40625 0.828125 0.40625 1.828125q0 1.703125 -1.09375 2.890625q-1.078125 1.171875 -3.921875 1.171875l-3.421875 0l0 5.421875l-1.765625 0zm1.765625 -7.0l3.453125 0q1.71875 0 2.4375 -0.640625q0.71875 -0.640625 0.71875 -1.796875q0 -0.84375 -0.421875 -1.4375q-0.421875 -0.59375 -1.125 -0.78125q-0.4375 -0.125 -1.640625 -0.125l-3.421875 0l0 4.78125zm10.396698 10.71875l-0.1875 -1.53125q0.546875 0.140625 0.9375 0.140625q0.546875 0 0.875 -0.1875q0.328125 -0.171875 0.546875 -0.5q0.15625 -0.25 0.5 -1.21875q0.046875 -0.140625 0.140625 -0.40625l-3.671875 -9.6875l1.765625 0l2.015625 5.59375q0.390625 1.078125 0.703125 2.25q0.28125 -1.125 0.671875 -2.203125l2.078125 -5.640625l1.640625 0l-3.6875 9.828125q-0.59375 1.609375 -0.921875 2.203125q-0.4375 0.8125 -1.0 1.1875q-0.5625 0.375 -1.34375 0.375q-0.484375 0 -1.0625 -0.203125zm12.984375 -5.1875l0.234375 1.453125q-0.6875 0.140625 -1.234375 0.140625q-0.890625 0 -1.390625 -0.28125q-0.484375 -0.28125 -0.6875 -0.734375q-0.203125 -0.46875 -0.203125 -1.9375l0 -5.578125l-1.203125 0l0 -1.265625l1.203125 0l0 -2.390625l1.625 -0.984375l0 3.375l1.65625 0l0 1.265625l-1.65625 0l0 5.671875q0 0.6875 0.078125 0.890625q0.09375 0.203125 0.28125 0.328125q0.203125 0.109375 0.578125 0.109375q0.265625 0 0.71875 -0.0625zm1.6051636 1.46875l0 -13.359375l1.640625 0l0 4.796875q1.140625 -1.328125 2.890625 -1.328125q1.078125 0 1.859375 0.421875q0.796875 0.421875 1.140625 1.171875q0.34375 0.75 0.34375 2.171875l0 6.125l-1.640625 0l0 -6.125q0 -1.234375 -0.53125 -1.796875q-0.53125 -0.5625 -1.515625 -0.5625q-0.71875 0 -1.359375 0.390625q-0.640625 0.375 -0.921875 1.015625q-0.265625 0.640625 -0.265625 1.78125l0 5.296875l-1.640625 0zm9.766357 -4.84375q0 -2.6875 1.484375 -3.96875q1.25 -1.078125 3.046875 -1.078125q2.0 0 3.265625 1.3125q1.265625 1.296875 1.265625 3.609375q0 1.859375 -0.5625 2.9375q-0.5625 1.0625 -1.640625 1.65625q-1.0625 0.59375 -2.328125 0.59375q-2.03125 0 -3.28125 -1.296875q-1.25 -1.3125 -1.25 -3.765625zm1.6875 0q0 1.859375 0.796875 2.796875q0.8125 0.921875 2.046875 0.921875q1.21875 0 2.03125 -0.921875q0.8125 -0.9375 0.8125 -2.84375q0 -1.796875 -0.8125 -2.71875q-0.8125 -0.921875 -2.03125 -0.921875q-1.234375 0 -2.046875 0.921875q-0.796875 0.90625 -0.796875 2.765625zm9.297607 4.84375l0 -9.671875l1.46875 0l0 1.375q1.0625 -1.59375 3.078125 -1.59375q0.875 0 1.609375 0.3125q0.734375 0.3125 1.09375 0.828125q0.375 0.5 0.515625 1.203125q0.09375 0.453125 0.09375 1.59375l0 5.953125l-1.640625 0l0 -5.890625q0 -1.0 -0.203125 -1.484375q-0.1875 -0.5 -0.671875 -0.796875q-0.484375 -0.296875 -1.140625 -0.296875q-1.046875 0 -1.8125 0.671875q-0.75 0.65625 -0.75 2.515625l0 5.28125l-1.640625 0z" fill-rule="nonzero"/><path fill="#000000" d="m471.49213 267.958l0 -13.359375l9.015625 0l0 1.578125l-7.25 0l0 4.140625l6.265625 0l0 1.578125l-6.265625 0l0 6.0625l-1.765625 0zm11.052246 0l0 -13.359375l1.640625 0l0 13.359375l-1.640625 0zm10.504181 -1.1875q-0.921875 0.765625 -1.765625 1.09375q-0.828125 0.3125 -1.796875 0.3125q-1.59375 0 -2.453125 -0.78125q-0.859375 -0.78125 -0.859375 -1.984375q0 -0.71875 0.328125 -1.296875q0.328125 -0.59375 0.84375 -0.9375q0.53125 -0.359375 1.1875 -0.546875q0.46875 -0.125 1.453125 -0.25q1.984375 -0.234375 2.921875 -0.5625q0.015625 -0.34375 0.015625 -0.421875q0 -1.0 -0.46875 -1.421875q-0.625 -0.546875 -1.875 -0.546875q-1.15625 0 -1.703125 0.40625q-0.546875 0.40625 -0.8125 1.421875l-1.609375 -0.21875q0.21875 -1.015625 0.71875 -1.640625q0.5 -0.640625 1.453125 -0.984375q0.953125 -0.34375 2.1875 -0.34375q1.25 0 2.015625 0.296875q0.78125 0.28125 1.140625 0.734375q0.375 0.4375 0.515625 1.109375q0.078125 0.421875 0.078125 1.515625l0 2.1875q0 2.28125 0.109375 2.890625q0.109375 0.59375 0.40625 1.15625l-1.703125 0q-0.265625 -0.515625 -0.328125 -1.1875zm-0.140625 -3.671875q-0.890625 0.375 -2.671875 0.625q-1.015625 0.140625 -1.4375 0.328125q-0.421875 0.1875 -0.65625 0.53125q-0.21875 0.34375 -0.21875 0.78125q0 0.65625 0.5 1.09375q0.5 0.4375 1.453125 0.4375q0.9375 0 1.671875 -0.40625q0.75 -0.421875 1.09375 -1.140625q0.265625 -0.5625 0.265625 -1.640625l0 -0.609375zm3.5476074 1.96875l1.625 -0.25q0.125 0.96875 0.75 1.5q0.625 0.515625 1.75 0.515625q1.125 0 1.671875 -0.453125q0.546875 -0.46875 0.546875 -1.09375q0 -0.546875 -0.484375 -0.875q-0.328125 -0.21875 -1.671875 -0.546875q-1.8125 -0.46875 -2.515625 -0.796875q-0.6875 -0.328125 -1.046875 -0.90625q-0.359375 -0.59375 -0.359375 -1.3125q0 -0.640625 0.296875 -1.1875q0.296875 -0.5625 0.8125 -0.921875q0.375 -0.28125 1.03125 -0.46875q0.671875 -0.203125 1.421875 -0.203125q1.140625 0 2.0 0.328125q0.859375 0.328125 1.265625 0.890625q0.421875 0.5625 0.578125 1.5l-1.609375 0.21875q-0.109375 -0.75 -0.640625 -1.171875q-0.515625 -0.421875 -1.46875 -0.421875q-1.140625 0 -1.625 0.375q-0.46875 0.375 -0.46875 0.875q0 0.3125 0.1875 0.578125q0.203125 0.265625 0.640625 0.4375q0.234375 0.09375 1.4375 0.421875q1.75 0.453125 2.4375 0.75q0.6875 0.296875 1.078125 0.859375q0.390625 0.5625 0.390625 1.40625q0 0.828125 -0.484375 1.546875q-0.46875 0.71875 -1.375 1.125q-0.90625 0.390625 -2.046875 0.390625q-1.875 0 -2.875 -0.78125q-0.984375 -0.78125 -1.25 -2.328125zm9.984375 2.890625l0 -13.359375l1.640625 0l0 7.625l3.890625 -3.9375l2.1093445 0l-3.6874695 3.59375l4.0624695 6.078125l-2.015625 0l-3.2030945 -4.953125l-1.15625 1.125l0 3.828125l-1.640625 0z" fill-rule="nonzero"/><path fill="#eeeeee" d="m706.1693 220.02448l0 0c0 -7.572586 6.138794 -13.711365 13.711365 -13.711365l215.8493 0c3.6364746 0 7.1240234 1.4445801 9.695374 4.0159607c2.5714111 2.5713806 4.015991 6.058914 4.015991 9.695404l0 54.84378c0 7.572571 -6.138794 13.711334 -13.711365 13.711334l-215.8493 0c-7.572571 0 -13.711365 -6.1387634 -13.711365 -13.711334z" fill-rule="evenodd"/><path stroke="#595959" stroke-width="1.0" stroke-linejoin="round" stroke-linecap="butt" d="m706.1693 220.02448l0 0c0 -7.572586 6.138794 -13.711365 13.711365 -13.711365l215.8493 0c3.6364746 0 7.1240234 1.4445801 9.695374 4.0159607c2.5714111 2.5713806 4.015991 6.058914 4.015991 9.695404l0 54.84378c0 7.572571 -6.138794 13.711334 -13.711365 13.711334l-215.8493 0c-7.572571 0 -13.711365 -6.1387634 -13.711365 -13.711334z" fill-rule="evenodd"/><path fill="#000000" d="m809.57935 243.36635l0 -13.359375l5.921875 0q1.78125 0 2.703125 0.359375q0.9375 0.359375 1.484375 1.28125q0.5625 0.90625 0.5625 2.015625q0 1.40625 -0.921875 2.390625q-0.921875 0.96875 -2.84375 1.234375q0.703125 0.34375 1.078125 0.671875q0.765625 0.703125 1.453125 1.765625l2.328125 3.640625l-2.21875 0l-1.765625 -2.78125q-0.78125 -1.203125 -1.28125 -1.828125q-0.5 -0.640625 -0.90625 -0.890625q-0.390625 -0.265625 -0.796875 -0.359375q-0.296875 -0.078125 -0.984375 -0.078125l-2.046875 0l0 5.9375l-1.765625 0zm1.765625 -7.453125l3.796875 0q1.21875 0 1.890625 -0.25q0.6875 -0.265625 1.046875 -0.8125q0.359375 -0.546875 0.359375 -1.1875q0 -0.953125 -0.6875 -1.5625q-0.6875 -0.609375 -2.1875 -0.609375l-4.21875 0l0 4.421875zm11.676086 7.453125l0 -13.359375l4.609375 0q1.546875 0 2.375 0.203125q1.140625 0.25 1.953125 0.953125q1.0625 0.890625 1.578125 2.28125q0.53125 1.390625 0.53125 3.171875q0 1.515625 -0.359375 2.703125q-0.359375 1.171875 -0.921875 1.9375q-0.546875 0.765625 -1.203125 1.21875q-0.65625 0.4375 -1.59375 0.671875q-0.9375 0.21875 -2.140625 0.21875l-4.828125 0zm1.765625 -1.578125l2.859375 0q1.3125 0 2.0625 -0.234375q0.75 -0.25 1.203125 -0.703125q0.625 -0.625 0.96875 -1.6875q0.359375 -1.0625 0.359375 -2.578125q0 -2.09375 -0.6875 -3.21875q-0.6875 -1.125 -1.671875 -1.5q-0.703125 -0.28125 -2.28125 -0.28125l-2.8125 0l0 10.203125zm11.113586 -2.71875l1.65625 -0.140625q0.125 1.0 0.546875 1.640625q0.4375 0.640625 1.34375 1.046875q0.921875 0.390625 2.0625 0.390625q1.0 0 1.78125 -0.296875q0.78125 -0.296875 1.15625 -0.8125q0.375 -0.53125 0.375 -1.15625q0 -0.625 -0.375 -1.09375q-0.359375 -0.46875 -1.1875 -0.796875q-0.546875 -0.203125 -2.390625 -0.640625q-1.828125 -0.453125 -2.5625 -0.84375q-0.96875 -0.5 -1.4375 -1.234375q-0.46875 -0.75 -0.46875 -1.671875q0 -1.0 0.578125 -1.875q0.578125 -0.890625 1.671875 -1.34375q1.109375 -0.453125 2.453125 -0.453125q1.484375 0 2.609375 0.484375q1.140625 0.46875 1.75 1.40625q0.609375 0.921875 0.65625 2.09375l-1.6875 0.125q-0.140625 -1.265625 -0.9375 -1.90625q-0.78125 -0.65625 -2.3125 -0.65625q-1.609375 0 -2.34375 0.59375q-0.734375 0.59375 -0.734375 1.421875q0 0.71875 0.53125 1.171875q0.5 0.46875 2.65625 0.96875q2.15625 0.484375 2.953125 0.84375q1.171875 0.53125 1.71875 1.359375q0.5625 0.828125 0.5625 1.90625q0 1.0625 -0.609375 2.015625q-0.609375 0.9375 -1.75 1.46875q-1.140625 0.515625 -2.578125 0.515625q-1.8125 0 -3.046875 -0.53125q-1.21875 -0.53125 -1.921875 -1.59375q-0.6875 -1.0625 -0.71875 -2.40625z" fill-rule="nonzero"/><path fill="#000000" d="m761.6572 269.28824q-1.359375 -1.703125 -2.296875 -4.0q-0.9375 -2.296875 -0.9375 -4.765625q0 -2.15625 0.703125 -4.140625q0.828125 -2.3125153 2.53125 -4.5937653l1.171875 0q-1.09375 1.890625 -1.453125 2.703125q-0.546875 1.25 -0.875 2.6250153q-0.390625 1.703125 -0.390625 3.421875q0 4.375 2.71875 8.75l-1.171875 0zm9.7126465 -7.03125l1.6875 0.203125q-0.40625 1.484375 -1.484375 2.3125q-1.078125 0.8125 -2.765625 0.8125q-2.125 0 -3.375 -1.296875q-1.234375 -1.3125 -1.234375 -3.671875q0 -2.453125 1.25 -3.796875q1.265625 -1.3437653 3.265625 -1.3437653q1.9375 0 3.15625 1.3281403q1.234375 1.3125 1.234375 3.703125q0 0.15625 0 0.4375l-7.21875 0q0.09375 1.59375 0.90625 2.453125q0.8125 0.84375 2.015625 0.84375q0.90625 0 1.546875 -0.46875q0.640625 -0.484375 1.015625 -1.515625zm-5.390625 -2.65625l5.40625 0q-0.109375 -1.21875 -0.625 -1.828125q-0.78125 -0.953125 -2.03125 -0.953125q-1.125 0 -1.90625 0.765625q-0.765625 0.75 -0.84375 2.015625zm9.141357 5.765625l0 -9.67189l1.46875 0l0 1.3750153q1.0625 -1.5937653 3.078125 -1.5937653q0.875 0 1.609375 0.3125q0.734375 0.31251526 1.09375 0.82814026q0.375 0.5 0.515625 1.203125q0.09375 0.453125 0.09375 1.59375l0 5.953125l-1.640625 0l0 -5.890625q0 -1.0 -0.203125 -1.484375q-0.1875 -0.5 -0.671875 -0.796875q-0.484375 -0.296875 -1.140625 -0.296875q-1.046875 0 -1.8125 0.671875q-0.75 0.65625 -0.75 2.515625l0 5.28125l-1.640625 0zm10.063232 0.796875l1.59375 0.234375q0.109375 0.75 0.5625 1.078125q0.609375 0.453125 1.671875 0.453125q1.140625 0 1.75 -0.453125q0.625 -0.453125 0.84375 -1.265625q0.125 -0.5 0.109375 -2.109375q-1.0625 1.265625 -2.671875 1.265625q-2.0 0 -3.09375 -1.4375q-1.09375 -1.4375 -1.09375 -3.453125q0 -1.390625 0.5 -2.5625q0.515625 -1.171875 1.453125 -1.796875q0.953125 -0.64064026 2.25 -0.64064026q1.703125 0 2.8125 1.3750153l0 -1.1562653l1.515625 0l0 8.35939q0 2.265625 -0.46875 3.203125q-0.453125 0.9375 -1.453125 1.484375q-0.984375 0.546875 -2.453125 0.546875q-1.71875 0 -2.796875 -0.78125q-1.0625 -0.765625 -1.03125 -2.34375zm1.359375 -5.8125q0 1.90625 0.75 2.78125q0.765625 0.875 1.90625 0.875q1.125 0 1.890625 -0.859375q0.765625 -0.875 0.765625 -2.734375q0 -1.78125 -0.796875 -2.671875q-0.78125 -0.90625 -1.890625 -0.90625q-1.09375 0 -1.859375 0.890625q-0.765625 0.875 -0.765625 2.625zm9.328796 -6.4531403l0 -1.890625l1.640625 0l0 1.890625l-1.640625 0zm0 11.468765l0 -9.67189l1.640625 0l0 9.67189l-1.640625 0zm4.1448364 0l0 -9.67189l1.46875 0l0 1.3750153q1.0625 -1.5937653 3.078125 -1.5937653q0.875 0 1.609375 0.3125q0.734375 0.31251526 1.09375 0.82814026q0.375 0.5 0.515625 1.203125q0.09375 0.453125 0.09375 1.59375l0 5.953125l-1.640625 0l0 -5.890625q0 -1.0 -0.203125 -1.484375q-0.1875 -0.5 -0.671875 -0.796875q-0.484375 -0.296875 -1.140625 -0.296875q-1.046875 0 -1.8125 0.671875q-0.75 0.65625 -0.75 2.515625l0 5.28125l-1.640625 0zm17.000732 -3.109375l1.6875 0.203125q-0.40625 1.484375 -1.484375 2.3125q-1.078125 0.8125 -2.765625 0.8125q-2.125 0 -3.375 -1.296875q-1.234375 -1.3125 -1.234375 -3.671875q0 -2.453125 1.25 -3.796875q1.265625 -1.3437653 3.265625 -1.3437653q1.9375 0 3.15625 1.3281403q1.234375 1.3125 1.234375 3.703125q0 0.15625 0 0.4375l-7.21875 0q0.09375 1.59375 0.90625 2.453125q0.8125 0.84375 2.015625 0.84375q0.90625 0 1.546875 -0.46875q0.640625 -0.484375 1.015625 -1.515625zm-5.390625 -2.65625l5.40625 0q-0.109375 -1.21875 -0.625 -1.828125q-0.78125 -0.953125 -2.03125 -0.953125q-1.125 0 -1.90625 0.765625q-0.765625 0.75 -0.84375 2.015625zm9.594482 -2.046875l0 -1.8593903l1.859375 0l0 1.8593903l-1.859375 0zm0 7.8125l0 -1.875l1.859375 0l0 1.875l-1.859375 0zm10.069702 0l0 -13.35939l2.65625 0l3.15625 9.45314q0.4375 1.328125 0.640625 1.984375q0.234375 -0.734375 0.703125 -2.140625l3.203125 -9.29689l2.375 0l0 13.35939l-1.703125 0l0 -11.17189l-3.875 11.17189l-1.59375 0l-3.859375 -11.375015l0 11.375015l-1.703125 0zm15.3064575 3.71875l-0.1875 -1.53125q0.546875 0.140625 0.9375 0.140625q0.546875 0 0.875 -0.1875q0.328125 -0.171875 0.546875 -0.5q0.15625 -0.25 0.5 -1.21875q0.046875 -0.140625 0.140625 -0.40625l-3.671875 -9.687515l1.765625 0l2.015625 5.5937653q0.390625 1.078125 0.703125 2.25q0.28125 -1.125 0.671875 -2.203125l2.078125 -5.6406403l1.640625 0l-3.6875 9.82814q-0.59375 1.609375 -0.921875 2.203125q-0.4375 0.8125 -1.0 1.1875q-0.5625 0.375 -1.34375 0.375q-0.484375 0 -1.0625 -0.203125zm9.015625 -8.015625l1.65625 -0.140625q0.125 1.0 0.546875 1.640625q0.4375 0.640625 1.34375 1.046875q0.921875 0.390625 2.0625 0.390625q1.0 0 1.78125 -0.296875q0.78125 -0.296875 1.15625 -0.8125q0.375 -0.53125 0.375 -1.15625q0 -0.625 -0.375 -1.09375q-0.359375 -0.46875 -1.1875 -0.796875q-0.546875 -0.203125 -2.390625 -0.640625q-1.828125 -0.453125 -2.5625 -0.84375q-0.96875 -0.5 -1.4375 -1.234375q-0.46875 -0.75 -0.46875 -1.6718903q0 -1.0 0.578125 -1.875q0.578125 -0.890625 1.671875 -1.34375q1.109375 -0.453125 2.453125 -0.453125q1.484375 0 2.609375 0.484375q1.140625 0.46875 1.75 1.40625q0.609375 0.921875 0.65625 2.09375l-1.6875 0.125q-0.140625 -1.265625 -0.9375 -1.90625q-0.78125 -0.65625 -2.3125 -0.65625q-1.609375 0 -2.34375 0.59375q-0.734375 0.59375 -0.734375 1.421875q0 0.71876526 0.53125 1.1718903q0.5 0.46875 2.65625 0.96875q2.15625 0.484375 2.953125 0.84375q1.171875 0.53125 1.71875 1.359375q0.5625 0.828125 0.5625 1.90625q0 1.0625 -0.609375 2.015625q-0.609375 0.9375 -1.75 1.46875q-1.140625 0.515625 -2.578125 0.515625q-1.8125 0 -3.046875 -0.53125q-1.21875 -0.53125 -1.921875 -1.59375q-0.6875 -1.0625 -0.71875 -2.40625zm23.162292 2.859375q1.234375 0.859375 2.265625 1.25l-0.515625 1.21875q-1.4375 -0.515625 -2.875 -1.625q-1.484375 0.828125 -3.28125 0.828125q-1.8125 0 -3.296875 -0.875q-1.46875 -0.875 -2.265625 -2.453125q-0.796875 -1.59375 -0.796875 -3.578125q0 -1.984375 0.796875 -3.5937653q0.8125 -1.625 2.28125 -2.46875q1.484375 -0.859375 3.328125 -0.859375q1.84375 0 3.328125 0.890625q1.484375 0.875 2.265625 2.453125q0.78125 1.5781403 0.78125 3.5625153q0 1.65625 -0.5 2.96875q-0.5 1.3125 -1.515625 2.28125zm-3.890625 -2.25q1.53125 0.421875 2.515625 1.28125q1.5625 -1.421875 1.5625 -4.28125q0 -1.625 -0.546875 -2.8281403q-0.546875 -1.21875 -1.609375 -1.875q-1.0625 -0.671875 -2.390625 -0.671875q-1.96875 0 -3.28125 1.359375q-1.296875 1.3437653 -1.296875 4.0312653q0 2.59375 1.28125 4.0q1.296875 1.390625 3.296875 1.390625q0.953125 0 1.78125 -0.359375q-0.828125 -0.53125 -1.75 -0.765625l0.4375 -1.28125zm8.198914 3.6875l0 -13.35939l1.78125 0l0 11.781265l6.5625 0l0 1.578125l-8.34375 0zm11.328857 3.921875l-1.1875 0q2.734375 -4.375 2.734375 -8.75q0 -1.71875 -0.390625 -3.390625q-0.3125 -1.3750153 -0.875 -2.6250153q-0.359375 -0.828125 -1.46875 -2.734375l1.1875 0q1.703125 2.28125 2.53125 4.5937653q0.6875 1.984375 0.6875 4.140625q0 2.46875 -0.9375 4.765625q-0.9375 2.296875 -2.28125 4.0z" fill-rule="nonzero"/><path fill="#000000" fill-opacity="0.0" d="m138.77907 247.44635l79.0728 0" fill-rule="evenodd"/><path stroke="#595959" stroke-width="1.0" stroke-linejoin="round" stroke-linecap="butt" d="m138.77907 247.44637l73.0728 0" fill-rule="evenodd"/><path fill="#595959" stroke="#595959" stroke-width="1.0" stroke-linecap="butt" d="m211.85187 249.09808l4.538101 -1.6517181l-4.538101 -1.6517334z" fill-rule="evenodd"/><path fill="#000000" fill-opacity="0.0" d="m217.855 268.79974l-85.2016 -1.6290588" fill-rule="evenodd"/><path stroke="#595959" stroke-width="1.0" stroke-linejoin="round" stroke-linecap="butt" d="m217.85501 268.7997l-79.20271 -1.5143127" fill-rule="evenodd"/><path fill="#595959" stroke="#595959" stroke-width="1.0" stroke-linecap="butt" d="m138.68388 265.63394l-4.5688477 1.5646973l4.5056915 1.7381897z" fill-rule="evenodd"/><path fill="#000000" fill-opacity="0.0" d="m382.71378 250.03801l54.219208 0" fill-rule="evenodd"/><path stroke="#595959" stroke-width="1.0" stroke-linejoin="round" stroke-linecap="butt" d="m382.71378 250.03801l48.219208 0" fill-rule="evenodd"/><path fill="#595959" stroke="#595959" stroke-width="1.0" stroke-linecap="butt" d="m430.93298 251.68974l4.5381165 -1.6517334l-4.5381165 -1.6517181z" fill-rule="evenodd"/><path fill="#000000" fill-opacity="0.0" d="m547.5757 250.03801l158.5968 0" fill-rule="evenodd"/><path stroke="#595959" stroke-width="1.0" stroke-linejoin="round" stroke-linecap="butt" d="m547.5757 250.03801l152.5968 0" fill-rule="evenodd"/><path fill="#595959" stroke="#595959" stroke-width="1.0" stroke-linecap="butt" d="m700.1725 251.68974l4.538086 -1.6517334l-4.538086 -1.6517181z" fill-rule="evenodd"/><path fill="#000000" fill-opacity="0.0" d="m704.399 270.509l-154.57361 -0.8515625" fill-rule="evenodd"/><path stroke="#595959" stroke-width="1.0" stroke-linejoin="round" stroke-linecap="butt" d="m704.39905 270.50897l-148.57373 -0.81848145" fill-rule="evenodd"/><path fill="#595959" stroke="#595959" stroke-width="1.0" stroke-linecap="butt" d="m555.8344 268.0388l-4.547119 1.626709l4.5289307 1.6766968z" fill-rule="evenodd"/><path fill="#000000" fill-opacity="0.0" d="m436.93454 268.79974l-49.59439 0.074035645" fill-rule="evenodd"/><path stroke="#595959" stroke-width="1.0" stroke-linejoin="round" stroke-linecap="butt" d="m436.93454 268.7997l-43.59439 0.065093994" fill-rule="evenodd"/><path fill="#595959" stroke="#595959" stroke-width="1.0" stroke-linecap="butt" d="m393.33768 267.21307l-4.5356445 1.6585083l4.540558 1.6449585z" fill-rule="evenodd"/><path fill="#000000" fill-opacity="0.0" d="m708.79504 294.42932l251.20563 0l0 54.943054l-251.20563 0z" fill-rule="evenodd"/><path fill="#000000" d="m763.851 310.77496q-0.46875 0.703125 -1.46875 1.8125l2.234375 0l-1.0 -1.109375l0.53125 -0.703125l-0.296875 0zm-0.9375 -5.453125q0.46875 0.109375 0.0625 0.34375l0 1.703125l1.171875 0l0 0.53125q0.46875 -1.171875 0.703125 -1.875l1.0 0.34375q0.40625 0.296875 -0.125 0.421875q-0.53125 1.578125 -1.34375 2.859375l1.875 0l0 1.125l-2.046875 0l1.171875 1.171875l-0.59375 0.640625l0.640625 0l0 6.15625l-0.984375 0l0 -0.46875l-2.40625 0l0 0.46875l-1.0 0l0 -4.578125l-0.765625 0.765625l-0.578125 -0.703125l0 4.515625l-1.0 0l0 -0.53125l-1.515625 0l0 0.53125l-1.0 0l0 -4.640625l3.390625 0l-0.109375 -0.171875q1.703125 -1.28125 3.109375 -3.15625l-2.640625 0l0 -1.125l2.046875 0l0 -1.34375l-1.34375 0l0 -0.9375l1.34375 0l0 -2.046875l0.9375 0zm0.0625 4.328125l0.234375 0q0.34375 -0.46875 0.765625 -1.34375l-1.0 0l0 1.34375zm-7.203125 -4.265625q0.46875 0.234375 -0.0625 0.46875q-0.296875 2.109375 -0.703125 3.515625q0.640625 0.109375 0.171875 0.46875l0 8.84375l-1.171875 0l0 -6.6875l-0.703125 1.234375l-0.8125 -1.0q1.8125 -3.09375 2.21875 -6.96875l1.0625 0.125zm4.453125 2.390625l0 1.125l-4.453125 0l0 -1.125l4.453125 0zm1.8125 9.5625l2.40625 0l0 -1.46875l-2.40625 0l0 1.46875zm0 -2.40625l2.40625 0l0 -1.40625l-2.40625 0l0 1.40625zm-4.859375 2.34375l1.515625 0l0 -2.234375l-1.515625 0l0 2.234375zm2.453125 -5.28125l0 1.125l-3.15625 0l0 -1.125l3.15625 0zm-0.0625 -2.109375l0 1.125l-3.09375 0l0 -1.125l3.09375 0zm0.0625 -4.15625l0 1.109375l-3.15625 0l0 -1.109375l3.15625 0zm10.4375 7.625q-1.296875 1.28125 -1.828125 1.578125l-0.640625 -1.234375q1.40625 -0.875 2.46875 -2.28125l0 -1.0625l0.703125 0.1875q0.75 -1.171875 1.171875 -2.40625l-3.984375 0l0 -1.109375l4.265625 0q0.1875 -0.53125 0.421875 -1.640625l1.28125 0.34375q0.234375 0.234375 -0.171875 0.296875l-0.234375 1.0l7.09375 0l0 1.109375l-7.453125 0q-0.640625 1.984375 -1.921875 3.8125l0 6.796875l-1.171875 0l0 -5.390625zm3.21875 -3.8125l5.328125 0l0.171875 -0.171875l0.9375 0.75q0.359375 0.359375 -0.234375 0.46875l-2.21875 1.765625l0 0.875l3.6875 0l0 1.109375l-3.6875 0l0 3.34375q0 0.9375 -0.9375 0.9375l-1.171875 0l-0.171875 -1.109375l0.875 0q0.234375 0 0.234375 -0.234375l0 -2.9375l-4.046875 0l0 -1.109375l4.046875 0l0 -1.703125l0.578125 0.0625l1.0 -0.9375l-4.390625 0l0 -1.109375zm11.546875 5.328125q0 2.234375 -1.40625 4.109375l-0.890625 -0.828125q1.296875 -1.578125 1.296875 -3.75l0 -8.078125l1.109375 0q2.234375 0 4.15625 -0.59375l0.46875 0.9375q0.1875 0.40625 -0.34375 0.234375l-0.359375 0.0625l0 4.625q0 3.8125 2.296875 4.859375q1.640625 0.765625 4.921875 0.828125l-0.296875 1.234375q-4.578125 -0.0625 -6.265625 -1.765625q-1.640625 -1.640625 -1.640625 -4.390625l0 -5.21875l-0.9375 0.0625l0 11.1875l-1.0 0l0 -11.078125l-1.109375 0l0 7.5625zm7.3125 -4.453125l0 -2.6875l-0.984375 0l0 2.6875l0.984375 0zm2.109375 0l0 -2.6875l-1.109375 0l0 2.6875l1.109375 0zm-4.09375 -3.625l5.09375 0l0 4.5625l-4.09375 0l0 2.578125q0 0.40625 0.515625 0.40625l2.46875 0q0.53125 0 0.578125 -0.40625l0.1875 -1.0l1.046875 0.296875l-0.234375 1.0625q-0.234375 0.984375 -1.109375 0.984375l-3.40625 0q-1.046875 0 -1.046875 -1.046875l0 -7.4375zm18.984375 4.5625l-10.015625 0.234375q-0.53125 0.640625 -0.59375 -0.0625l-0.171875 -0.9375l5.328125 0l0 -1.28125l-2.875 0l0 0.578125l-1.171875 0l0 -3.28125l4.046875 0l0 -1.21875l1.109375 0q0.46875 0.046875 0.0625 0.34375l0 0.875l4.15625 0l0 2.703125l-1.046875 0q1.40625 0.9375 2.8125 1.875l-0.703125 0.875l-0.9375 -0.703125zm-1.0625 1.640625l2.296875 0l0 2.8125l-2.296875 0l0 1.53125l1.359375 -0.0625l-0.46875 -0.828125l0.9375 -0.34375q0.75 1.171875 1.34375 2.234375l-1.0 0.46875l-0.40625 -0.828125l-4.6875 0.40625q-0.296875 0.59375 -0.46875 0l-0.234375 -0.9375l2.640625 -0.0625l0 -1.578125l-1.234375 0l0 0.703125l-1.0 0l0 -3.515625l2.234375 0l0 -1.28125l0.9375 0q0.46875 0.046875 0.046875 0.34375l0 0.9375zm-4.6875 5.921875l-0.234375 -0.8125l-4.625 0.40625q-0.40625 0.640625 -0.53125 -0.0625l-0.171875 -0.9375l2.75 -0.125l0 -1.578125l-1.21875 0l0 0.703125l-1.0 0l0 -3.515625l2.21875 0l0 -1.171875l0.9375 0q0.46875 0.0625 0.0625 0.359375l0 0.8125l2.28125 0l0 2.8125l-2.28125 0l0 1.578125l1.296875 -0.046875l-0.296875 -0.890625l0.875 -0.234375q0.59375 1.0625 0.9375 2.40625l-1.0 0.296875zm3.703125 -3.8125l0 -1.40625l-1.234375 0l0 1.40625l1.234375 0zm-4.21875 0l0 -1.40625l-1.296875 0l0 1.40625l1.296875 0zm-3.515625 0l1.21875 0l0 -1.40625l-1.21875 0l0 1.40625zm8.71875 0l1.296875 0l0 -1.40625l-1.296875 0l0 1.40625zm-3.21875 -6.5l2.984375 0l0 -1.296875l-2.984375 0l0 1.296875zm-4.046875 0l2.875 0l0 -1.296875l-2.875 0l0 1.296875zm6.921875 0.703125l-2.875 0l0 1.234375l3.28125 0l-0.9375 -0.65625l0.53125 -0.578125zm6.4375 -2.046875l-1.171875 0l0 -1.125l7.5625 0l0 1.125l-1.75 0l0 11.359375l-1.171875 0l0 -2.984375q-2.46875 0.875 -4.171875 1.28125q-0.28125 0.421875 -0.34375 0.1875l-0.359375 -1.46875q0.703125 -0.125 1.40625 -0.234375l0 -8.140625zm5.046875 10.1875q1.8125 -1.234375 2.8125 -2.578125q-1.46875 -2.171875 -1.875 -5.796875l-0.703125 0l0 -1.109375l5.03125 0l0.234375 -0.296875l1.0 0.9375l-0.296875 0.171875q-0.40625 3.578125 -1.875 6.15625q0.9375 1.234375 2.46875 2.171875l-0.703125 1.234375q-1.53125 -1.1875 -2.515625 -2.40625q-1.171875 1.34375 -2.765625 2.640625l-0.8125 -1.125zm3.515625 -3.578125q0.9375 -1.40625 1.40625 -4.796875l-2.875 0q0.296875 2.75 1.46875 4.796875zm-7.390625 -6.609375l0 1.984375l2.296875 0l0 -1.984375l-2.296875 0zm0 2.921875l0 1.9375l2.296875 0l0 -1.9375l-2.296875 0zm0 2.875l0 2.109375q1.125 -0.234375 2.296875 -0.640625l0 -1.46875l-2.296875 0zm12.3125 -0.46875q2.21875 -1.46875 3.75 -4.15625l0.875 0.703125q0.234375 0.171875 -0.171875 0.28125q-0.765625 1.234375 -1.109375 1.703125l0 7.734375l-1.171875 0l0 -6.5q-0.65625 0.640625 -1.53125 1.34375l-0.640625 -1.109375zm0.34375 -4.109375q1.828125 -1.171875 2.9375 -3.046875l0.9375 0.703125q0.234375 0.234375 -0.171875 0.296875q-1.359375 2.109375 -3.046875 3.171875l-0.65625 -1.125zm6.21875 6.328125q0.765625 0.53125 1.8125 1.875l-1.0 0.828125q-0.875 -1.234375 -1.75 -2.0l0.9375 -0.703125zm-2.46875 -0.28125l0 -1.125l5.984375 0l0 -0.984375l-5.921875 0l0 -1.125l9.265625 0l0 1.125l-2.171875 0l0 0.984375l2.109375 0l0 1.125l-2.109375 0l0 3.34375q0 0.875 -0.828125 0.875l-1.34375 0l-0.234375 -1.109375l1.0 0q0.234375 0 0.234375 -0.25l0 -2.859375l-5.984375 0zm6.75 -5.984375l-4.21875 0l0 1.0625l4.21875 0l0 -1.0625zm0 -1.875l-4.21875 0l0 0.9375l4.21875 0l0 -0.9375zm0.984375 -0.9375l0 4.8125l-6.203125 0l0 -4.8125l6.203125 0zm11.609375 3.453125q-0.59375 1.640625 -1.875 3.109375l-0.875 -1.046875q1.984375 -2.0 2.515625 -5.6875l1.234375 0.40625q0.515625 0.234375 -0.0625 0.359375q-0.171875 0.8125 -0.46875 1.75l4.21875 0l-0.296875 7.96875q-0.0625 2.34375 -1.875 2.34375l-1.640625 0l-0.171875 -1.109375l1.515625 0q0.828125 0 0.890625 -1.0625l0.28125 -7.03125l-3.390625 0zm0.703125 5.453125q-0.828125 -1.171875 -1.8125 -2.109375l0.984375 -1.046875q1.171875 1.046875 1.875 2.046875l-1.046875 1.109375zm-6.921875 -6.5625q0.359375 -1.109375 0.65625 -2.578125l1.40625 0.53125q0.234375 0.234375 -0.1875 0.296875q-0.171875 0.75 -0.640625 1.75l2.171875 0l0 9.671875l-1.171875 0l0 -0.703125l-2.578125 0l0 1.171875l-1.171875 0l0 -10.140625l1.515625 0zm2.234375 1.109375l-2.578125 0l0 2.578125l2.578125 0l0 -2.578125zm0 3.703125l-2.578125 0l0 3.046875l2.578125 0l0 -3.046875zm17.453125 2.28125q-2.921875 2.515625 -6.03125 3.453125l-0.53125 -1.40625q3.109375 -0.875 5.578125 -2.984375q-2.0625 -2.234375 -2.765625 -5.15625l-2.8125 0l0 -1.109375l5.625 0l0 -2.234375l1.296875 0q0.578125 0.125 0.0625 0.46875l0 1.765625l5.671875 0l0 1.109375l-2.75 0q-0.46875 2.75 -2.453125 5.15625q2.046875 1.8125 5.4375 2.6875l-0.515625 1.421875q-3.0 -0.765625 -5.8125 -3.171875zm-0.046875 -1.875q1.75 -2.109375 2.15625 -4.21875l-4.5625 0q0.34375 1.984375 2.40625 4.21875zm9.3125 -6.796875l4.921875 0l0 -1.171875l1.109375 0q0.46875 0.0625 0.0625 0.34375l0 0.828125l4.984375 0l0 0.9375l-2.34375 0l-0.53125 1.28125l4.046875 0l0 0.9375l-13.421875 0l0 -0.9375l4.09375 0l-0.46875 -1.28125l-2.453125 0l0 -0.9375zm6.90625 2.21875l0.46875 -1.28125l-3.625 0l0.46875 1.28125l2.6875 0zm2.875 6.09375l-3.6875 0l0 0.828125l6.15625 0l0 1.109375l-6.15625 0l0 2.109375l-1.171875 0l0 -2.109375l-6.03125 0l0 -1.109375l6.03125 0l0 -0.828125l-1.8125 0l-1.875 0l0 -4.453125l8.546875 0l0 4.453125zm-1.171875 -2.578125l0 -0.9375l-6.203125 0l0 0.9375l6.203125 0zm0 1.640625l0 -0.9375l-6.203125 0l0 0.9375l6.203125 0zm13.484375 -5.265625q-0.65625 1.640625 -3.34375 2.28125l5.921875 0l0 5.453125l-8.328125 0l0 -5.453125l2.109375 0l-0.578125 -1.0q3.21875 -0.46875 3.328125 -2.578125l-0.984375 0q-0.65625 1.0 -1.40625 1.59375l-0.828125 -0.65625q1.34375 -1.21875 2.171875 -3.046875l1.0 0.359375q0.234375 0.234375 -0.1875 0.296875l-0.234375 0.515625l4.6875 0l0.1875 -0.171875l0.9375 0.640625l-0.296875 0.234375q-0.40625 0.703125 -1.46875 1.765625l-0.875 -0.59375q0.46875 -0.40625 0.875 -0.9375l-2.453125 0q0.984375 1.9375 4.734375 2.640625l-0.46875 1.109375q-3.21875 -0.578125 -4.5 -2.453125zm4.09375 10.140625q-2.6875 -0.40625 -4.515625 -1.53125l0.890625 -0.8125q1.875 0.9375 3.984375 1.171875l-0.359375 1.171875zm-11.890625 -1.0q2.515625 -0.359375 4.15625 -1.34375l0.875 0.8125q0.234375 0.421875 -0.34375 0.234375q-1.875 0.9375 -4.28125 1.40625l-0.40625 -1.109375zm9.203125 -5.28125l0 -0.875l-5.984375 0l0 0.875l5.984375 0zm-7.859375 -6.796875q0.875 0.421875 1.9375 1.0l-0.765625 1.0q-0.765625 -0.46875 -1.9375 -1.0l0.765625 -1.0zm-0.53125 5.15625q-0.109375 0.59375 -0.40625 0.0625l-0.640625 -1.0q1.75 -0.640625 3.15625 -1.515625l0.59375 0.875q-1.40625 0.9375 -2.703125 1.578125zm8.390625 3.234375l0 -0.890625l-5.984375 0l0 0.890625l5.984375 0zm0 1.578125l0 -0.875l-5.984375 0l0 0.875l5.984375 0zm5.265625 0.171875q2.46875 -1.9375 3.109375 -4.046875l-2.703125 0l0 -1.109375l2.703125 0l0 -5.21875l1.109375 0q0.46875 0.0625 0.0625 0.359375l0 4.859375l2.40625 0l0 1.109375l-2.40625 0l0 0.765625q1.46875 0.875 2.40625 1.9375l-0.703125 1.171875q-0.9375 -1.109375 -1.703125 -1.703125l0 4.875l-1.171875 0l0 -4.515625q-0.765625 1.40625 -2.34375 2.6875l-0.765625 -1.171875zm4.75 -6.09375q0.578125 -1.28125 1.109375 -3.15625l1.234375 0.40625q0.296875 0.234375 -0.125 0.234375q-0.578125 1.75 -1.109375 2.984375l-1.109375 -0.46875zm-3.21875 -2.8125q0.8125 1.40625 1.109375 2.703125l-1.171875 0.46875q-0.296875 -1.171875 -1.0625 -2.703125l1.125 -0.46875zm10.125 -1.28125q0.46875 0.046875 0.0625 0.34375l0 7.4375l1.578125 -0.40625l0.359375 1.234375l-1.9375 0.40625l0 4.171875l-1.171875 0l0 -3.875l-3.15625 0.703125l-0.296875 -1.234375l3.453125 -0.703125l0 -8.078125l1.109375 0zm-3.328125 1.6875q1.109375 0.703125 1.75 1.40625l-0.8125 1.0625q-0.53125 -0.53125 -1.703125 -1.46875l0.765625 -1.0zm-0.1875 3.234375q0.890625 0.515625 1.765625 1.40625l-0.828125 1.046875q-0.703125 -0.765625 -1.6875 -1.46875l0.75 -0.984375z" fill-rule="nonzero"/><path fill="#000000" d="m775.3901 326.2031q0.65625 -1.34375 2.171875 -2.75l0.640625 0.578125q-1.453125 1.34375 -2.046875 2.578125q-0.640625 1.34375 -0.640625 3.21875q0 1.59375 0.640625 3.0q0.59375 1.28125 2.046875 2.875l-0.640625 0.640625q-1.46875 -1.640625 -2.171875 -3.109375q-0.75 -1.578125 -0.75 -3.40625q0 -2.046875 0.75 -3.625zm12.3125 7.671875q0.234375 0.234375 -0.234375 0.234375q-1.171875 1.171875 -2.40625 1.9375l-0.765625 -1.0625q1.53125 -0.8125 2.46875 -1.921875l0.9375 0.8125zm2.21875 1.46875q0 0.9375 -0.9375 0.9375l-0.75 0l-0.296875 -1.109375l0.578125 0q0.234375 0 0.234375 -0.234375l0 -2.234375l-3.984375 0l0 -1.109375l8.859375 0l0 1.109375l-3.703125 0l0 2.640625zm1.171875 -2.234375q1.296875 1.0625 2.46875 1.640625l-0.640625 1.0625q-1.171875 -0.53125 -2.578125 -1.9375l0.75 -0.765625zm-11.25 -1.046875q2.109375 -2.46875 2.40625 -4.8125l-1.9375 0l0 -1.109375l1.9375 0l0 -3.046875l1.109375 0q0.46875 0.0625 0.0625 0.359375l0 2.6875l1.578125 0l0 1.109375l-1.578125 0l0 1.46875q0.875 0.46875 1.703125 1.34375l-0.640625 1.125q-0.53125 -0.59375 -1.0625 -1.0l0 6.328125l-1.171875 0l0 -5.859375q-0.53125 1.28125 -1.640625 2.40625l-0.765625 -1.0zm12.65625 -1.234375l-6.609375 0l0 -1.109375l6.609375 0l0 1.109375zm-4.859375 -2.875l0 -1.515625l-1.171875 0l0 1.515625l1.171875 0zm2.171875 0l0 -1.515625l-1.171875 0l0 1.515625l1.171875 0zm1.0 0l1.171875 0l0 -1.515625l-1.171875 0l0 1.515625zm2.15625 -2.453125l0 3.390625l-7.5 0l0 -3.390625l2.171875 0l0 -0.828125l-2.515625 0l0 -1.109375l8.203125 0l0 1.109375l-2.515625 0l0 0.828125l2.15625 0zm-4.328125 0l1.171875 0l0 -0.828125l-1.171875 0l0 0.828125zm8.78125 5.625q-0.046875 0.875 -0.109375 1.640625q0.640625 0.8125 1.109375 1.234375l0 -4.171875l-3.046875 0l0 -1.109375l6.5 0l0 1.109375l-2.453125 0l0 1.59375l1.984375 0l0 1.109375l-1.984375 0l0 2.046875q0.8125 0.53125 1.875 0.53125l7.375 0l-0.28125 1.109375l-7.09375 0q-2.34375 0 -4.15625 -2.21875q-0.46875 1.578125 -1.0 2.34375l-0.9375 -0.875q1.171875 -1.765625 1.171875 -4.875l1.171875 0.171875q0.171875 0.1875 -0.125 0.359375zm3.75 2.6875q1.46875 -0.34375 2.640625 -1.046875l-1.234375 0l0 -7.09375l1.640625 0l0.296875 -1.171875l-2.453125 0l0 -1.109375l6.203125 0l0 1.109375l-2.453125 0l-0.53125 1.171875l2.578125 0l0 7.09375l-1.46875 0q0.765625 0.46875 2.234375 0.9375l-0.46875 1.046875q-1.46875 -0.40625 -2.53125 -1.21875l0.65625 -0.765625l-2.296875 0l0.65625 0.8125q0.234375 0.359375 -0.359375 0.234375q-1.109375 0.59375 -2.640625 1.0l-0.46875 -1.0zm-4.859375 -5.859375l0 -4.5625l4.8125 0l0 4.5625l-4.8125 0zm3.8125 -1.8125l-2.8125 0l0 0.875l2.8125 0l0 -0.875zm6.734375 0.46875l-3.28125 0l0 1.109375l3.28125 0l0 -1.109375zm0 2.046875l-3.28125 0l0 1.125l3.28125 0l0 -1.125zm0 2.0625l-3.28125 0l0 1.109375l3.28125 0l0 -1.109375zm-6.734375 -6.390625l-2.8125 0l0 0.875l2.8125 0l0 -0.875zm13.703125 12.1875q-1.40625 -1.578125 -2.921875 -2.578125l0.875 -1.171875q1.875 1.109375 3.109375 2.515625l-1.0625 1.234375zm7.8515625 -1.28125q0.234375 0 0.234375 -0.25l0 -3.625l-1.109375 0.296875q-0.0625 0.46875 -0.296875 0.171875l-0.40625 -1.296875l1.8125 -0.34375l0 -3.109375l-1.515625 0l0 -1.109375l1.515625 0l0 -3.046875l1.125 0q0.46875 0.0625 0.046875 0.34375l0 2.703125l1.359375 0l0 1.109375l-1.359375 0l0 2.875l1.359375 -0.40625l0.171875 1.046875l-1.53125 0.46875l0 4.34375q0 0.9375 -0.9375 0.9375l-1.046875 0l-0.171875 -1.109375l0.75 0zm4.875 -5.984375l2.046875 0l0 -1.109375l-2.46875 0l0 8.3125l-1.171875 0l0 -9.25l2.234375 0l-0.765625 -1.703125l-1.8125 0l0 -0.9375l3.6875 0l0 -1.703125l1.296875 0q0.578125 0.125 0.046875 0.46875l0 1.234375l3.875 0l0 0.9375l-1.9375 0l-0.875 1.703125l2.578125 0l0 8.078125q0 0.9375 -0.9375 0.9375l-1.34375 0l-0.1875 -1.109375l1.0625 0q0.234375 0 0.234375 -0.234375l0 -6.734375l-2.515625 0l0 1.109375l2.109375 0l0 0.9375l-2.109375 0l0 1.171875l1.515625 0l0 3.21875l-2.984375 0l0 0.65625l-1.0 0l0 -3.875l1.46875 0l0 -1.171875l-2.046875 0l0 -0.9375zm1.75 -2.046875l1.296875 0l0.703125 -1.703125l-2.640625 0l0.640625 1.703125zm1.8125 6.4375l0 -1.34375l-1.984375 0l0 1.34375l1.984375 0zm12.84375 0.9375q-2.0 1.46875 -6.859375 1.875l-0.234375 -1.109375q4.046875 -0.234375 5.859375 -1.171875q-1.34375 -0.359375 -2.640625 -0.59375l-0.34375 0.421875l-1.0625 -0.59375l1.578125 -1.75l-4.03125 0l0 -0.9375l4.796875 0l0.9375 -1.296875l-3.109375 0l0 0.40625l-0.984375 0l0 -3.921875l3.046875 0l0 -1.28125l-4.34375 0l0 -0.9375l12.59375 0l0 0.9375l-4.328125 0l0 1.28125l3.046875 0l0 3.875l-1.0 0l0 -0.359375l-4.390625 0l0.578125 0.296875q0.296875 0.171875 -0.171875 0.296875l-0.578125 0.703125l7.265625 0l0 0.9375l-3.0 0q-0.703125 1.171875 -1.6875 2.109375q1.875 0.515625 4.03125 1.515625l-0.75 1.0625q-1.765625 -0.9375 -4.21875 -1.765625zm-2.234375 -2.921875l-1.0 1.109375q1.359375 0.171875 3.0 0.578125q0.9375 -0.703125 1.453125 -1.6875l-3.453125 0zm0.171875 -7.03125l0 1.28125l1.9375 0l0 -1.28125l-1.9375 0zm-3.046875 3.859375l2.0625 0l0 -1.640625l-2.0625 0l0 1.640625zm3.046875 -1.640625l0 1.640625l1.9375 0l0 -1.640625l-1.9375 0zm2.9375 0l0 1.640625l2.046875 0l0 -1.640625l-2.046875 0zm9.953125 9.671875q-1.40625 -1.578125 -2.921875 -2.578125l0.875 -1.171875q1.875 1.109375 3.109375 2.515625l-1.0625 1.234375zm13.7109375 -9.3125l0 0.75l4.046875 0l0 0.9375l-9.3125 0l0 -0.9375l4.09375 0l0 -0.75l-1.40625 0l-1.34375 0l0 -2.296875l6.5625 0l0 2.296875l-2.640625 0zm-2.921875 -0.703125l4.5625 0l0 -0.890625l-4.5625 0l0 0.890625zm5.96875 7.671875l-7.3125 0l0 -4.578125l7.3125 0l0 4.578125zm-6.328125 -0.703125l5.34375 0l0 -3.171875l-5.34375 0l0 3.171875zm0.703125 -0.59375l0 -2.046875l3.8125 0l0 2.046875l-3.8125 0zm1.0 -0.703125l1.8125 0l0 -0.640625l-1.8125 0l0 0.640625zm-4.09375 3.703125l0 0.578125l-1.171875 0l0 -13.234375l12.421875 0l0 13.125l-1.171875 0l0 -0.46875l-10.078125 0zm10.078125 -11.546875l-10.078125 0l0 10.421875l10.078125 0l0 -10.421875zm6.90625 -0.640625q0.59375 0.109375 0.0625 0.46875l0 2.453125l3.625 0l0 -3.515625l1.296875 0q0.578125 0.125 0.0625 0.46875l0 3.046875l4.328125 0l0 1.296875l-9.3125 0l0 1.875l6.625 0l0 6.5625l-1.359375 0l0 -5.28125l-5.265625 0l0 0.59375q0 2.859375 -2.234375 4.75l-0.9375 -0.9375q2.0 -1.46875 2.0 -3.9375l0 -7.84375l1.109375 0zm14.53125 9.546875q-0.703125 1.46875 -2.171875 3.109375l-0.640625 -0.640625q1.46875 -1.59375 2.046875 -2.875q0.65625 -1.40625 0.65625 -3.0q0 -1.875 -0.65625 -3.21875q-0.578125 -1.234375 -2.046875 -2.578125l0.640625 -0.578125q1.53125 1.40625 2.171875 2.75q0.765625 1.578125 0.765625 3.625q0 1.828125 -0.765625 3.40625z" fill-rule="nonzero"/></g></svg>